<svg xmlns="http://www.w3.org/2000/svg" width="482" height="232" viewBox="0 0 482 232"><rect width="100%" height="100%" fill="#ffffff"/><path d="M 8 13 q 0 -5 5 -5 l 7 0 l 3 4 l 10 0 l 3 -4 l 433 0 q 5 0 5 5 l 0 22 q 0 5 -5 5 l -433 0 l -3 4 l -10 0 l -3 -4 l -7 0 q -5 0 -5 -5 z" fill="#1E90FF" stroke="#1462b3" stroke-width="1"/>
<text x="20.0" y="25.0" font-family="Helvetica Neue, Helvetica, Arial, sans-serif" font-size="15" font-weight="600" fill="#ffffff" dominant-baseline="middle">para siempre</text>
<rect x="8" y="40" width="14" height="168" fill="#1E90FF" stroke="#1462b3" stroke-width="1"/>
<path d="M 8 213 q 0 -5 5 -5 l 7 0 l 3 4 l 10 0 l 3 -4 l 433 0 q 5 0 5 5 l 0 3 q 0 5 -5 5 l -433 0 l -3 4 l -10 0 l -3 -4 l -7 0 q -5 0 -5 -5 z" fill="#1E90FF" stroke="#1462b3" stroke-width="1"/>
<path d="M 22 45 q 0 -5 5 -5 l 7 0 l 3 4 l 10 0 l 3 -4 l 407 0 q 5 0 5 5 l 0 22 q 0 5 -5 5 l -407 0 l -3 4 l -10 0 l -3 -4 l -7 0 q -5 0 -5 -5 z" fill="#DC143C" stroke="#a10e2b" stroke-width="1"/>
<text x="34.0" y="57.0" font-family="Helvetica Neue, Helvetica, Arial, sans-serif" font-size="15" font-weight="600" fill="#ffffff" dominant-baseline="middle">establecer</text>
<rect x="117.89999999999999" y="45" width="48.160000000000004" height="22" rx="4" ry="4" fill="#ffffff" stroke="#c8c8c8" stroke-width="1"/>
<text x="124.9" y="57.0" font-family="Helvetica Neue, Helvetica, Arial, sans-serif" font-size="14" font-weight="600" fill="#2b2b2b" dominant-baseline="middle">luz ▾</text>
<text x="174.1" y="57.0" font-family="Helvetica Neue, Helvetica, Arial, sans-serif" font-size="15" font-weight="600" fill="#ffffff" dominant-baseline="middle">a</text>
<rect x="190.46" y="45" width="104.9" height="22" rx="11.0" ry="11.0" fill="#D400D4" stroke="#960096" stroke-width="1"/>
<text x="200.5" y="57.0" font-family="Helvetica Neue, Helvetica, Arial, sans-serif" font-size="15" font-weight="600" fill="#ffffff" dominant-baseline="middle">nivel de luz</text>
<path d="M 22 77 q 0 -5 5 -5 l 7 0 l 3 4 l 10 0 l 3 -4 l 407 0 q 5 0 5 5 l 0 22 q 0 5 -5 5 l -407 0 l -3 4 l -10 0 l -3 -4 l -7 0 q -5 0 -5 -5 z" fill="#00A4A6" stroke="#00777a" stroke-width="1"/>
<rect x="22" y="104" width="14" height="96" fill="#00A4A6" stroke="#00777a" stroke-width="1"/>
<path d="M 22 205 q 0 -5 5 -5 l 7 0 l 3 4 l 10 0 l 3 -4 l 407 0 q 5 0 5 5 l 0 3 q 0 5 -5 5 l -407 0 l -3 4 l -10 0 l -3 -4 l -7 0 q -5 0 -5 -5 z" fill="#00A4A6" stroke="#00777a" stroke-width="1"/>
<text x="34.0" y="89.0" font-family="Helvetica Neue, Helvetica, Arial, sans-serif" font-size="15" font-weight="600" fill="#ffffff" dominant-baseline="middle">si</text>
<path d="M 65.9 77 l 109.30000000000001 0 l 11 11 l -11 11 l -109.30000000000001 0 l -11 -11 z" fill="#00A4A6" stroke="#00777a" stroke-width="1"/>
<rect x="66.9" y="78" width="39.3" height="20" rx="10.0" ry="10.0" fill="#DC143C" stroke="#a10e2b" stroke-width="1"/>
<text x="75.9" y="89.0" font-family="Helvetica Neue, Helvetica, Arial, sans-serif" font-size="15" font-weight="600" fill="#ffffff" dominant-baseline="middle">luz</text>
<rect x="114.2" y="78" width="22" height="20" rx="4" ry="4" fill="#ffffff" stroke="#c8c8c8" stroke-width="1"/>
<text x="121.0" y="89.0" font-family="Helvetica Neue, Helvetica, Arial, sans-serif" font-size="14" font-weight="600" fill="#2b2b2b" dominant-baseline="middle">&lt;</text>
<rect x="144.2" y="78" width="30" height="20" rx="4" ry="4" fill="#ffffff" stroke="#c8c8c8" stroke-width="1"/>
<text x="149.4" y="89.0" font-family="Helvetica Neue, Helvetica, Arial, sans-serif" font-size="14" font-weight="600" fill="#2b2b2b" dominant-baseline="middle">50</text>
<text x="194.2" y="89.0" font-family="Helvetica Neue, Helvetica, Arial, sans-serif" font-size="15" font-weight="600" fill="#ffffff" dominant-baseline="middle">entonces</text>
<path d="M 36 109 q 0 -5 5 -5 l 7 0 l 3 4 l 10 0 l 3 -4 l 393 0 q 5 0 5 5 l 0 22 q 0 5 -5 5 l -393 0 l -3 4 l -10 0 l -3 -4 l -7 0 q -5 0 -5 -5 z" fill="#1E90FF" stroke="#1462b3" stroke-width="1"/>
<text x="48.0" y="121.0" font-family="Helvetica Neue, Helvetica, Arial, sans-serif" font-size="15" font-weight="600" fill="#ffffff" dominant-baseline="middle">mostrar cadena</text>
<rect x="167.3" y="109" width="72" height="22" rx="4" ry="4" fill="#ffffff" stroke="#c8c8c8" stroke-width="1"/>
<text x="175.3" y="121.0" font-family="Helvetica Neue, Helvetica, Arial, sans-serif" font-size="14" font-weight="600" fill="#2b2b2b" dominant-baseline="middle">"noche"</text>
<path d="M 22 141 q 0 -5 5 -5 l 7 0 l 3 4 l 10 0 l 3 -4 l 407 0 q 5 0 5 5 l 0 22 q 0 5 -5 5 l -407 0 l -3 4 l -10 0 l -3 -4 l -7 0 q -5 0 -5 -5 z" fill="#00A4A6" stroke="#00777a" stroke-width="1"/>
<text x="34.0" y="153.0" font-family="Helvetica Neue, Helvetica, Arial, sans-serif" font-size="15" font-weight="600" fill="#ffffff" dominant-baseline="middle">si no</text>
<path d="M 36 173 q 0 -5 5 -5 l 7 0 l 3 4 l 10 0 l 3 -4 l 393 0 q 5 0 5 5 l 0 22 q 0 5 -5 5 l -393 0 l -3 4 l -10 0 l -3 -4 l -7 0 q -5 0 -5 -5 z" fill="#1E90FF" stroke="#1462b3" stroke-width="1"/>
<text x="48.0" y="185.0" font-family="Helvetica Neue, Helvetica, Arial, sans-serif" font-size="15" font-weight="600" fill="#ffffff" dominant-baseline="middle">mostrar cadena</text>
<rect x="167.3" y="173" width="52.68" height="22" rx="4" ry="4" fill="#ffffff" stroke="#c8c8c8" stroke-width="1"/>
<text x="175.3" y="185.0" font-family="Helvetica Neue, Helvetica, Arial, sans-serif" font-size="14" font-weight="600" fill="#2b2b2b" dominant-baseline="middle">"día"</text></svg>